<svg xmlns="http://www.w3.org/2000/svg" xmlns:xlink="http://www.w3.org/1999/xlink" id="Layer_1" x="0px" y="0px" viewBox="0 0 2000 573.8" style="enable-background:new 0 0 2000 573.8;" xml:space="preserve"><style type="text/css">	.st0{fill-rule:evenodd;clip-rule:evenodd;fill:#04042C;}	.st1{fill-rule:evenodd;clip-rule:evenodd;fill:#EC2C44;}</style><path class="st0" d="M1643.6,15.7c-4.2,1.5-10,6.6-12.1,10.6c-3.7,7-2.6,15.5,2.7,21.5c9.5,10.8,26.1,10.4,35.2-0.8 c2.4-3,3.1-5,3.5-9.6c0.6-7.9-1.1-12.3-6.4-17C1659.9,14.6,1651.5,12.9,1643.6,15.7 M666,121.7v96.5h65h65v-17.5v-17.5h-44.5H707 v-22v-22h41h41v-17.5v-17.5h-41h-41v-22v-22h44.5H796V42.7V25.2h-65h-65V121.7 M1000,56.2v17h-10h-10v15.5v15.5h10h10v41.4 c0,38.7,0.1,41.8,2,47.9c6.3,20.4,28.5,30.2,57,25.2c5.2-0.9,9.9-2.1,10.4-2.6c0.7-0.7-2.7-20.8-5-29.1c-0.4-1.4-1.2-1.5-5.8-0.7 c-6.4,1.1-12.4-0.2-15.2-3.3c-1.8-2-1.9-4.3-2.2-40.5l-0.3-38.4h13.5h13.5V88.7V73.2h-13.5H1041v-17v-17h-20.5H1000V56.2  M897.4,72.7c-3.4,0.7-8.5,2.5-11.4,4c-6.5,3.3-14.9,11.6-17.5,17.2c-1.1,2.3-2.3,4.2-2.7,4.2s-0.8-5.6-0.8-12.5V73.2h-19.5H826 v72.5v72.5h20.4h20.4l0.3-45.8c0.3-40.6,0.5-46.2,2.1-50.2c2.7-6.8,6.2-10.7,12.4-13.7c10.5-5.1,23.3-3.3,30.4,4.3 c6.6,7.1,6.3,5.1,6.7,57.6l0.3,47.8h20.5h20.5l-0.3-53.2c-0.3-51.8-0.4-53.4-2.5-59.8c-2.8-8.3-8.6-17.4-14.3-22.3 C931.4,73,914,69.1,897.4,72.7 M1142.9,72.2c-14.9,2.4-26.3,8.2-36.9,18.9c-15.4,15.6-22.7,38.9-20.1,64.3 c2.1,20.9,7.4,33.2,19.6,45.4c12.1,12.1,23.5,17.4,41.8,19.5c29.4,3.3,57.8-7.9,69.2-27.4c3-5.1,6.8-15.7,6-16.6 c-1.1-1.1-36.9-3-37.3-1.9c-0.2,0.5-1.8,2.9-3.5,5.2c-8.8,11.7-30.3,13.9-43.6,4.4c-5.8-4.2-10.9-13.7-11.8-21.9l-0.6-5.8h49.3h49.3 l-0.6-12.8c-1-20.7-4.5-33.2-12.7-45.3c-7.8-11.5-21.3-20.7-35.8-24.4C1167.4,71.8,1150.7,71,1142.9,72.2 M1312.3,73.1 c-10.3,3.6-16,8.9-21.5,20l-2.8,5.6l0-12.8l-0.1-12.8h-19.5H1249v72.5v72.5h20.5h20.5l0-44.8l0-44.8l2.3-5c2.8-5.9,7.3-10.7,13-13.8 c3.5-1.9,5.8-2.2,14.6-2.2c5.8,0,12,0.3,13.8,0.7l3.2,0.7V90.8V72.5l-3.8-0.6C1326.5,70.7,1317.6,71.3,1312.3,73.1 M1428.2,72.3 c-10.8,2.1-20.4,8.9-27.1,19.2l-4.1,6.2V85.5V73.2h-20.5H1356l0.3,99.3l0.3,99.2l20.2,0.3l20.2,0.3l0-38.8l0-38.8l3,4.8 c8.7,13.9,21.6,20.7,39,20.7c15.5,0,27-4.8,38-15.9c12.3-12.4,18-25.8,20-47.6c2.7-29.1-4.2-53.5-19.4-68.9 C1464.6,74.6,1446.1,68.8,1428.2,72.3 M1588,72.6c-9.2,2.5-18.2,10.5-22.5,20l-2.4,5.2l-0.1-12.2l-0.1-12.2h-20h-20v72.5v72.5h20.5 h20.5v-43.3c0-50.7,0-50.8,8.3-59.2c3.4-3.4,6.8-5.7,10.1-6.9c5.3-1.8,17.1-2.2,24.3-0.8l4.2,0.8V90.7V72.5l-3.8-0.6 C1601.5,70.9,1593,71.2,1588,72.6 M1747.2,72.2c-20.7,2.9-36.4,12.6-43.3,26.6c-4.3,8.8-5.1,20.1-2,30.2c1.7,5.7,3.2,8.2,7.6,12.9 c9.2,10,17,13.2,44.8,18.8c21.1,4.2,26.5,6.4,29.1,11.8c2.4,4.9,1.5,8.8-2.9,12.6c-12.5,11-39.4,5.8-43-8.3c-0.4-1.5-1-2.9-1.4-3.2 c-0.8-0.5-39.2,1.5-39.8,2c-0.2,0.2,0.4,3.2,1.3,6.6c4.2,16.6,19,30.3,38.1,35.3c16,4.2,38.4,3.9,53.3-0.6 c23.7-7.3,37.2-23.2,37.2-44c0-18.3-10-30.1-31-36.7c-3.6-1.1-14.6-3.7-24.5-5.7c-24.4-5-29.5-7.8-29.5-16.1 c0-8.4,7.8-13.6,20.5-13.7c11.2-0.1,21.4,5.8,23,13.4c0.6,2.5,1,2.8,4.8,2.8c6.2,0,33-2,33.5-2.5c0.2-0.2-0.1-2.6-0.8-5.2 c-4.5-18.1-18.1-30.8-38.3-35.7C1775.7,71.8,1756.1,71,1747.2,72.2 M1899.5,72.7c-5.2,1-11.2,3.1-17.4,6.1 c-13.1,6.5-22,15.3-28.4,28.4c-7.1,14.4-8.1,19.5-8.1,39.4c0,14.8,0.3,18,2.3,25c6.9,23.8,23.7,40.5,46.9,46.7 c11.2,3,32.6,2.9,43.8,0c15.9-4.2,28.6-12.4,35.8-23.3c3.8-5.8,8.4-17.4,7.3-18.5c-1.1-1.1-37-3.3-37.4-2.2c-0.8,2.4-5,7.6-8.2,10.1 c-4.7,3.8-14.8,6.3-22.3,5.5c-15.9-1.7-26.1-12-28.4-28.9l-0.6-4.8h49.3h49.3l-0.6-14.2c-0.7-16.9-2.3-24.3-7.9-35.8 c-3.2-6.7-5.7-10.1-11.7-16c-8.5-8.5-15.9-12.8-27.1-15.9C1926,71.5,1910,70.8,1899.5,72.7 M1631,145.7v72.5h20.5h20.5v-72.5V73.2 h-20.5H1631V145.7 M1148,103.2c-11,3.3-19.5,12.6-21.5,23.4l-0.7,3.7h29.6h29.6v-2.5c0-9.3-9.3-21.1-19.1-24 C1160.4,102.1,1152.3,101.9,1148,103.2 M1904.4,104.2c-9.6,3.8-17.1,12.8-18.8,22.8l-0.6,3.3h29.5h29.5l-0.1-3.3 c-0.2-7.9-6.1-16.9-13.9-21.2C1922.8,101.9,1912,101.2,1904.4,104.2 M1416.6,105.8c-11.1,4.1-17.4,14.3-19.6,31.8 c-1.2,9.8,0,22.1,3.1,30.3c4.6,12.3,13.8,19.4,25.1,19.4c9.1,0,13.6-1.7,19.3-7.5c16-16,14.8-57.2-2-70.1 C1435.5,104.3,1424.9,102.7,1416.6,105.8 M1063.9,299.8c-7.5,2.3-14.9,11.9-14.9,19.4c0,6.7,5.4,14.6,12.4,18.2 c11,5.7,26.5,0,30.8-11.2c1.5-3.9,1.2-12.5-0.6-15.9c-2.3-4.5-9.1-9.8-14.1-11.1C1072,297.9,1069.6,298,1063.9,299.8 M666,405.7 v96.5h20.5H707v-96.5v-96.5h-20.5H666V405.7 M1289,405.7v96.5h20.5h20.5v-43.3c0-47.2,0.4-51.3,5.7-59c5.3-7.6,16.4-11.7,26.9-9.8 c8.2,1.5,13.2,5.2,16.8,12.6l3,6l0.3,46.8l0.3,46.8h19.9h19.9l0-51.8c0-42.6-0.3-52.9-1.5-58.2c-5.9-25-29.3-40.1-56.3-36.3 c-4.3,0.6-10.4,2.2-13.5,3.6c-7,3.1-15,10.5-19,17.6l-3.1,5.5l-0.3-36.8l-0.3-36.8h-20h-20V405.7 M1463,340.2v17h-9.5h-9.5v15.5 v15.5h9.5h9.5l0,37.8c0,20.8,0.5,40.9,1,44.8c3.2,22.5,22.4,35.2,49.9,33.1c7.5-0.6,18.5-2.7,19.7-3.9c0.4-0.4-5.4-28.5-6.1-29.8 c-0.3-0.4-2.4-0.3-4.7,0.2c-5.5,1.2-11.9,0.3-14.6-2.2c-3.8-3.5-4.2-8.1-4.2-44.7l0-35.2h13.5h13.5v-15.5v-15.5h-13.5H1504v-17v-17 h-20.5H1463V340.2 M810.2,356.8c-3.5,0.8-8.4,2.4-10.8,3.5c-6.3,3-15.4,11.8-18.3,17.6l-2.5,4.9l-0.3-12.8l-0.3-12.8h-19.5H739v72.5 v72.5h20.5H780v-44.8c0-48.6,0.2-50.8,5.5-57.7c6-7.8,16.6-11.6,27-9.4c7.5,1.6,12.7,5.6,16.2,12.7l2.9,5.8l0.3,46.8l0.3,46.8h19.9 H872v-51.8c0-55.9-0.1-57.2-5.5-69c-3.2-7-12.1-16.2-19.5-20.1C836.4,355.6,823,354,810.2,356.8 M950.5,355.8 c-29.4,4.4-45.8,16.8-49.5,37.4c-2.9,16.2,3.5,31.3,16.7,39.8c7.7,4.9,14.5,7.1,36.4,11.7c11.3,2.4,22,5,23.7,5.9 c10,5.2,9.4,16.5-1.1,21.5c-14.5,7-35.2,1.1-38.9-11.1l-1.2-4l-7.1,0.6c-3.9,0.3-13,0.9-20.2,1.2l-13.1,0.6l1.4,6 c4.2,18,19.3,31.6,41,36.8c11.8,2.9,32.3,3.1,43.9,0.5c24.1-5.4,40.4-20.2,43.6-39.4c2.8-17-4.6-30.9-20.8-39.1 c-7.6-3.8-13-5.4-33.8-9.6c-19.6-4-24.5-5.7-28-9.8c-7.7-9.1,2.2-19.9,18.4-19.9c11.2,0,19,4.2,22.7,12.3l1.8,4.1l12.5-0.7 c21.9-1.1,24-1.5,24-4.1c0-3.3-3.4-12.7-6.3-17.1c-3.6-5.6-12.6-13.8-18.7-16.9c-8.3-4.2-19.2-6.5-32.6-7 C958.9,355.6,952.2,355.6,950.5,355.8 M1164,356.7c-11.1,2.5-19.9,7.6-27.7,15.9c-14.2,15.2-20.6,36.9-18.9,64 c2.4,38,21.4,60.3,54,63.3c18.7,1.7,37.4-6.9,44.6-20.5l1.9-3.6l0,16c0,8.8-0.4,17.6-1,19.6c-1.7,6.1-5.2,10.2-11.4,13.4 c-5.5,2.8-6.6,3-17,3c-9.5,0-11.8-0.3-16.3-2.4c-4.8-2.2-11.4-8.1-12.4-11.1c-0.3-1-4.2-0.8-18.9,1.1c-21.3,2.8-20.9,2.5-16.1,12.3 c5.7,11.6,17.3,21,32.2,25.9c15.6,5.2,40.6,5.7,58.4,1.1c7.6-1.9,20.8-8.4,25.9-12.7c5.9-4.9,12.3-14.3,14.8-21.7 c2.2-6.6,2.2-6.9,2.6-84.9l0.3-78.2h-20.5H1218l-0.1,12.2c0,9.9-0.3,11.9-1.2,10.4c-7.9-12.4-15.7-19.3-25.3-22.2 C1184.1,355.4,1171.6,355,1164,356.7 M1051,429.7v72.5h20.5h20.5v-72.5v-72.5h-20.5H1051V429.7 M1181,389.1 c-13.9,4.6-21.9,19-22,39.7c0,13.9,3.1,24.3,9.6,31.4c5.8,6.5,10.4,8.4,19.9,8.4c7,0,8.7-0.3,13.4-3c10.2-5.6,15.1-15.7,15.8-32.7 c1-21.5-5.2-36.5-17.6-42.3C1196.2,388.7,1184.9,387.8,1181,389.1"></path><path class="st1" d="M17,85.2v60h149h149v-60v-60H166H17V85.2 M374,263.7v238.5h60h60V263.7V25.2h-60h-60V263.7 M17,263.7v59.5h149 h149v-59.5v-59.5H166H17V263.7 M17,442.2v60h149h149v-60v-60H166H17V442.2"></path></svg>
